<?xml version="1.0" encoding="UTF-8"?>
<svg id="Calque_1" xmlns="http://www.w3.org/2000/svg" version="1.1" viewBox="0 0 500 500">
  <!-- Generator: Adobe Illustrator 29.8.3, SVG Export Plug-In . SVG Version: 2.1.1 Build 3)  -->
  <defs>
    <style>
      .st0 {
        fill: #0298c6;
      }

      .st1 {
        fill: #81b841;
      }

      .st2 {
        fill: #f19220;
      }
    </style>
  </defs>
  <path class="st0" d="M72.54,318.19v-44.31h-15.47v44.31h-14.06v-84.39c0-7.74,6.33-14.06,14.06-14.06h15.47c7.73,0,14.06,6.33,14.06,14.06v84.39h-14.06ZM72.54,235.92c0-1.83-1.69-3.52-3.52-3.52h-8.44c-1.83,0-3.52,1.69-3.52,3.52v25.32h15.47v-25.32Z"/>
  <polygon class="st0" points="127.6 305.53 127.6 318.19 92.44 318.19 92.44 219.74 106.51 219.74 106.51 305.53 127.6 305.53"/>
  <path class="st0" d="M154.54,274.59v-12.66h22.5v42.19c0,7.73-6.33,14.06-14.06,14.06h-15.47c-7.73,0-14.06-6.33-14.06-14.06v-70.32c0-7.73,6.33-14.06,14.06-14.06h15.47c7.73,0,14.06,6.33,14.06,14.06v14.06h-14.06v-11.95c0-1.83-1.68-3.52-3.52-3.52h-8.44c-1.83,0-3.52,1.69-3.52,3.52v66.1c0,1.82,1.69,3.52,3.52,3.52h8.44c1.83,0,3.52-1.69,3.52-3.52v-27.43h-8.44Z"/>
  <polygon class="st0" points="218.05 219.74 218.05 232.4 196.95 232.4 196.95 261.23 214.11 261.23 214.11 273.89 196.95 273.89 196.95 305.54 218.05 305.54 218.05 318.19 182.89 318.19 182.89 219.74 218.05 219.74"/>
  <path class="st0" d="M247.8,273.89h-9.85v44.3h-14.06v-98.45h29.54c7.73,0,14.06,6.33,14.06,14.06v19.55c0,6.89-4.64,12.38-10.69,13.36v.7c6.05.42,12.1,6.05,12.1,13.78v36.99h-14.06v-37.27c0-3.66-3.38-7.03-7.03-7.03M253.43,257.71v-21.8c0-1.83-1.69-3.52-3.52-3.52h-11.96v28.83h11.96c1.83,0,3.52-1.69,3.52-3.52"/>
  <path class="st0" d="M324.26,318.19v-44.31h-15.47v44.31h-14.06v-84.39c0-7.74,6.33-14.06,14.06-14.06h15.47c7.73,0,14.06,6.33,14.06,14.06v84.39h-14.06ZM324.26,235.92c0-1.83-1.69-3.52-3.52-3.52h-8.44c-1.83,0-3.52,1.69-3.52,3.52v25.32h15.47v-25.32Z"/>
  <path class="st1" d="M404.96,318.1h0c-4.12,0-7.45-3.33-7.45-7.45s3.34-7.46,7.45-7.46,7.46,3.34,7.46,7.46-3.34,7.45-7.46,7.45"/>
  <path class="st1" d="M457.39,304.13c0,7.74-6.33,14.06-14.06,14.06h-14.06c-7.74,0-14.06-6.33-14.06-14.06v-70.32c0-7.73,6.33-14.06,14.06-14.06h14.06c7.73,0,14.06,6.33,14.06,14.06v70.32ZM439.81,232.4h-7.03c-1.82,0-3.51,1.69-3.51,3.52v66.1c0,1.83,1.69,3.52,3.51,3.52h7.03c1.83,0,3.52-1.69,3.52-3.52v-66.1c0-1.83-1.69-3.52-3.52-3.52"/>
  <path class="st2" d="M289.25,224.74c0,4.34-3.61,7.85-7.98,7.66-4.32-.19-7.66-4.01-7.3-8.31.33-3.93,3.61-7.01,7.64-7.01s7.64,3.42,7.64,7.66"/>
  <path class="st0" d="M281.85,240.9c-4.66,0-7.04-1.86-7.04-1.86v79.15h14.07v-79.15s-2.56,1.86-7.03,1.86"/>
  <path class="st2" d="M299.24,206.29c-.11-.13-.23-.23-.35-.34l-.34-.33c-.06-.06-.13-.11-.2-.15-9.9-9.01-25.05-8.65-34.5.8l-1.11,1.12-1.54,1.53c-1.86,1.86-1.86,4.91.01,6.78,1.88,1.88,4.92,1.88,6.78.02l2.65-2.64c6.01-6.01,15.78-6.01,21.8-.02l1.91,1.85c1.85,1.85,4.86,1.85,6.72-.02.9-.89,1.4-2.08,1.4-3.36s-.49-2.46-1.39-3.36l-1.85-1.9Z"/>
  <path class="st2" d="M312.61,196.48l-1.59-1.58s0-.02-.02-.02l-1.26-1.26c-.21-.21-.46-.4-.71-.57-16.14-14.17-40.7-13.73-56.33,1.3-.07.08-.15.12-.23.2l-2.87,2.87c-1.71,1.71-1.69,4.47.02,6.18,1.71,1.71,4.47,1.73,6.18.02l2.87-2.87s.05-.04.06-.06c12.64-12.21,32.68-12.29,45.42-.25l2.25,2.26c1.71,1.7,4.48,1.7,6.2-.01,1.7-1.71,1.71-4.49,0-6.2"/>
  <path class="st1" d="M394.19,303.36v14.74h-43.06v-23.75c0-11.46,7.46-17.52,14.5-23.26l10.62-8.68c1.44-1.15,3.59-4.1,3.59-8.19v-15.56c0-2.13-1.72-4.09-3.59-4.09h-7.18c-1.86,0-3.59,1.97-3.59,4.09v13.92h-14.36v-16.38c0-9.01,6.46-16.38,14.36-16.38h14.35c7.9,0,14.35,7.37,14.35,16.38v20.47c0,11.47-7.18,16.54-14.21,22.61l-10.91,9.33c-1.44,1.31-3.59,4.1-3.59,8.19v6.55h28.71Z"/>
</svg>